<?xml version="1.0" standalone="no"?>
<!DOCTYPE svg PUBLIC "-//W3C//DTD SVG 20010904//EN"
 "http://www.w3.org/TR/2001/REC-SVG-20010904/DTD/svg10.dtd">
<svg version="1.0" xmlns="http://www.w3.org/2000/svg"
 width="512.000000pt" height="512.000000pt" viewBox="0 0 512.000000 512.000000"
 preserveAspectRatio="xMidYMid meet">
<metadata>
Created by potrace 1.11, written by Peter Selinger 2001-2013
</metadata>
<g transform="translate(0.000000,512.000000) scale(0.100000,-0.100000)"
fill="#000000" stroke="none">
<path d="M1705 5102 c-81 -38 -126 -109 -126 -197 0 -119 90 -208 211 -208 82
0 148 41 186 116 9 18 18 33 19 35 6 6 70 -31 115 -66 98 -76 183 -190 246
-328 19 -43 40 -87 46 -98 13 -25 2 -33 -60 -40 -100 -12 -127 -18 -217 -47
-93 -31 -139 -55 -183 -95 -25 -24 -27 -24 -271 -24 -226 0 -249 -2 -278 -19
-141 -87 -167 -485 -73 -1131 11 -74 22 -153 25 -175 3 -22 10 -62 15 -90 19
-93 28 -143 36 -190 2 -11 18 -91 35 -177 l32 -158 1097 0 1097 0 32 158 c18
86 35 168 37 182 3 14 11 61 19 105 8 44 17 98 20 120 4 22 8 47 10 55 2 8 7
38 10 65 4 28 13 93 20 145 8 52 17 118 20 145 3 28 8 64 10 81 11 78 19 263
18 405 -2 270 -46 419 -136 466 -27 13 -71 16 -277 17 l-245 1 -29 28 c-55 52
-207 110 -321 123 -27 3 -53 8 -57 10 -7 5 -120 15 -193 17 l-49 2 -27 71
c-29 79 -89 196 -146 282 -81 124 -235 251 -353 292 -21 7 -47 28 -64 51 -54
76 -170 108 -251 71z m414 -1356 c114 -42 200 -147 219 -268 23 -152 -54 -293
-197 -361 -54 -26 -76 -30 -141 -30 -190 0 -329 136 -336 328 -5 127 43 224
147 293 88 59 209 74 308 38z m1120 0 c81 -30 150 -93 187 -173 32 -68 42
-126 31 -193 -18 -121 -84 -210 -196 -263 -54 -25 -76 -30 -141 -30 -65 0 -87
5 -141 30 -77 37 -130 88 -167 162 -23 48 -27 68 -27 146 0 76 4 98 26 145 75
159 264 236 428 176z m-284 -948 c8 -5 12 -172 6 -235 -2 -19 -797 -19 -803 0
-3 10 -3 198 1 232 1 11 779 14 796 3z"/>
<path d="M1940 3569 c-74 -30 -113 -122 -84 -196 16 -40 40 -66 81 -87 138
-70 281 108 187 232 -42 55 -120 76 -184 51z"/>
<path d="M3060 3569 c-121 -49 -123 -229 -2 -283 143 -65 278 106 184 233 -38
52 -120 75 -182 50z"/>
<path d="M1995 1903 c3 -38 7 -108 10 -158 3 -49 8 -119 10 -155 3 -36 7 -108
11 -160 3 -52 7 -115 9 -140 2 -25 7 -97 11 -160 3 -63 8 -117 11 -120 6 -6
1004 -6 1008 0 4 7 12 106 20 240 3 58 8 125 10 150 2 25 7 95 11 155 3 61 7
130 9 155 2 25 6 93 10 153 l7 107 -571 0 -571 0 5 -67z"/>
<path d="M1895 1938 c-90 -64 -174 -167 -220 -272 l-24 -54 31 9 c40 11 91 4
128 -18 16 -9 31 -15 32 -12 2 2 14 25 28 51 13 26 37 61 54 79 31 33 31 39
22 174 -5 62 -6 65 -13 65 -5 0 -21 -10 -38 -22z"/>
<path d="M3179 1938 c0 -13 -2 -34 -4 -48 -2 -14 -6 -49 -8 -77 -3 -49 0 -56
34 -98 21 -25 46 -63 56 -85 20 -45 24 -46 58 -24 29 19 102 26 128 12 18 -9
19 -8 13 18 -21 84 -134 234 -222 295 -51 35 -54 35 -55 7z"/>
<path d="M1684 1564 c-63 -31 -76 -107 -26 -157 49 -49 126 -37 157 24 44 84
-46 176 -131 133z"/>
<path d="M3365 1573 c-58 -14 -89 -87 -61 -141 27 -52 89 -70 142 -42 43 23
58 100 28 145 -13 20 -64 47 -83 44 -3 -1 -15 -3 -26 -6z"/>
<path d="M1639 1336 c-1 0 -2 -66 -3 -145 l-2 -145 -32 -8 c-51 -13 -65 -46
-64 -146 0 -77 2 -88 22 -104 46 -37 110 -8 110 51 0 25 4 29 33 32 58 7 74 0
81 -33 8 -43 33 -68 67 -68 55 0 73 39 66 150 -3 65 -7 76 -31 97 -15 12 -36
23 -47 23 -18 0 -19 8 -19 149 l0 149 -45 -17 c-41 -15 -49 -15 -90 0 -25 9
-46 16 -46 15z"/>
<path d="M3463 1329 c-13 -13 -89 -16 -130 -6 l-33 9 0 -146 c0 -138 -1 -146
-19 -146 -11 0 -33 -11 -48 -24 -27 -23 -28 -28 -28 -120 0 -83 2 -97 20 -110
46 -35 99 -10 111 52 6 31 8 32 60 32 53 0 54 0 54 -30 0 -37 31 -70 65 -70
33 0 65 33 66 68 6 143 -6 182 -62 198 l-33 10 -1 141 c0 78 -3 144 -6 147 -3
3 -10 1 -16 -5z"/>
<path d="M2175 858 c1 -76 4 -92 16 -89 44 14 111 12 134 -3 13 -9 27 -16 30
-16 4 0 2 80 -4 188 -1 8 -26 12 -89 12 l-88 0 1 -92z"/>
<path d="M2789 948 c0 -2 -3 -47 -6 -101 l-4 -98 32 16 c29 15 96 17 138 4 11
-3 14 13 15 86 l0 90 -87 3 c-48 1 -87 1 -88 0z"/>
<path d="M2222 719 c-84 -24 -92 -143 -12 -184 86 -45 174 52 128 142 -9 18
-66 56 -80 52 -1 0 -18 -5 -36 -10z"/>
<path d="M2818 707 c-76 -52 -55 -163 34 -181 93 -19 155 93 91 164 -36 40
-81 46 -125 17z"/>
<path d="M2175 361 c0 -121 -6 -151 -35 -151 -18 0 -81 -64 -100 -99 -10 -20
-21 -53 -24 -74 l-6 -37 240 0 240 0 0 23 c-2 57 -58 152 -107 178 -21 12 -23
18 -25 148 -3 148 -1 143 -63 123 -20 -6 -45 -5 -75 2 l-46 12 1 -125z"/>
<path d="M2773 478 c-4 -7 -8 -69 -9 -137 l-1 -124 -42 -34 c-46 -39 -75 -88
-85 -145 l-7 -38 241 0 c272 0 255 -6 224 83 -16 48 -100 137 -129 137 -13 0
-15 20 -15 135 0 135 0 136 -21 125 -27 -15 -101 -15 -127 -1 -16 8 -23 8 -29
-1z"/>
</g>
</svg>
